<mxfile host="app.diagrams.net" agent="Mozilla/5.0 (Windows NT 10.0; Win64; x64; rv:131.0) Gecko/20100101 Firefox/131.0" version="24.7.17">
  <diagram name="Seite-1" id="-nwWdMtZd1M_6P_eRlj7">
    <mxGraphModel dx="857" dy="454" grid="1" gridSize="10" guides="1" tooltips="1" connect="1" arrows="1" fold="1" page="1" pageScale="1" pageWidth="827" pageHeight="1169" math="0" shadow="0">
      <root>
        <mxCell id="0" />
        <mxCell id="1" parent="0" />
        <mxCell id="wU1aB0iPta8UfizL6uYo-19" style="edgeStyle=orthogonalEdgeStyle;rounded=0;orthogonalLoop=1;jettySize=auto;html=1;exitX=0.5;exitY=1;exitDx=0;exitDy=0;entryX=0.5;entryY=0;entryDx=0;entryDy=0;" parent="1" source="wU1aB0iPta8UfizL6uYo-1" target="wU1aB0iPta8UfizL6uYo-9" edge="1">
          <mxGeometry relative="1" as="geometry" />
        </mxCell>
        <mxCell id="wU1aB0iPta8UfizL6uYo-1" value="&lt;span style=&quot;font-size: 27px;&quot;&gt;a&lt;/span&gt;" style="text;html=1;align=center;verticalAlign=middle;whiteSpace=wrap;rounded=0;" parent="1" vertex="1">
          <mxGeometry x="240" y="385" width="20" height="20" as="geometry" />
        </mxCell>
        <mxCell id="wU1aB0iPta8UfizL6uYo-2" value="♯" style="text;whiteSpace=wrap;fontSize=28;fontStyle=1;fontFamily=Verdana;" parent="1" vertex="1">
          <mxGeometry x="280" y="370" width="10" height="30" as="geometry" />
        </mxCell>
        <mxCell id="AZgFLMNkyRpCaPgbJ5CK-1" style="rounded=0;orthogonalLoop=1;jettySize=auto;html=1;exitX=0.25;exitY=1;exitDx=0;exitDy=0;entryX=0.75;entryY=0;entryDx=0;entryDy=0;entryPerimeter=0;" parent="1" source="wU1aB0iPta8UfizL6uYo-3" target="wU1aB0iPta8UfizL6uYo-9" edge="1">
          <mxGeometry relative="1" as="geometry" />
        </mxCell>
        <mxCell id="wU1aB0iPta8UfizL6uYo-3" value="&lt;span style=&quot;font-size: 27px;&quot;&gt;f&lt;/span&gt;" style="text;html=1;align=center;verticalAlign=middle;whiteSpace=wrap;rounded=0;" parent="1" vertex="1">
          <mxGeometry x="310" y="380" width="20" height="30" as="geometry" />
        </mxCell>
        <mxCell id="wU1aB0iPta8UfizL6uYo-4" value="♯" style="text;whiteSpace=wrap;fontSize=28;fontStyle=1;fontFamily=Verdana;" parent="1" vertex="1">
          <mxGeometry x="350" y="370" width="20" height="30" as="geometry" />
        </mxCell>
        <mxCell id="wU1aB0iPta8UfizL6uYo-5" value="&lt;span style=&quot;font-size: 27px;&quot;&gt;g&lt;/span&gt;" style="text;html=1;align=center;verticalAlign=middle;whiteSpace=wrap;rounded=0;" parent="1" vertex="1">
          <mxGeometry x="380" y="375" width="20" height="30" as="geometry" />
        </mxCell>
        <mxCell id="wU1aB0iPta8UfizL6uYo-15" style="rounded=0;orthogonalLoop=1;jettySize=auto;html=1;exitX=1;exitY=0.5;exitDx=0;exitDy=0;" parent="1" source="wU1aB0iPta8UfizL6uYo-6" target="wU1aB0iPta8UfizL6uYo-7" edge="1">
          <mxGeometry relative="1" as="geometry" />
        </mxCell>
        <mxCell id="wU1aB0iPta8UfizL6uYo-6" value="&lt;span style=&quot;font-size: 27px;&quot;&gt;c&lt;/span&gt;" style="text;html=1;align=center;verticalAlign=middle;whiteSpace=wrap;rounded=0;" parent="1" vertex="1">
          <mxGeometry x="310" y="440" width="20" height="30" as="geometry" />
        </mxCell>
        <mxCell id="wU1aB0iPta8UfizL6uYo-13" style="rounded=0;orthogonalLoop=1;jettySize=auto;html=1;exitX=0.5;exitY=0;exitDx=0;exitDy=0;entryX=0.5;entryY=1;entryDx=0;entryDy=0;" parent="1" source="wU1aB0iPta8UfizL6uYo-7" target="wU1aB0iPta8UfizL6uYo-5" edge="1">
          <mxGeometry relative="1" as="geometry" />
        </mxCell>
        <mxCell id="wU1aB0iPta8UfizL6uYo-14" style="rounded=0;orthogonalLoop=1;jettySize=auto;html=1;exitX=0;exitY=0;exitDx=0;exitDy=0;entryX=0.5;entryY=1;entryDx=0;entryDy=0;" parent="1" source="wU1aB0iPta8UfizL6uYo-7" target="wU1aB0iPta8UfizL6uYo-3" edge="1">
          <mxGeometry relative="1" as="geometry" />
        </mxCell>
        <mxCell id="wU1aB0iPta8UfizL6uYo-7" value="&lt;span style=&quot;font-size: 27px;&quot;&gt;e&lt;/span&gt;" style="text;html=1;align=center;verticalAlign=middle;whiteSpace=wrap;rounded=0;" parent="1" vertex="1">
          <mxGeometry x="380" y="470" width="20" height="30" as="geometry" />
        </mxCell>
        <mxCell id="wU1aB0iPta8UfizL6uYo-16" style="rounded=0;orthogonalLoop=1;jettySize=auto;html=1;exitX=1;exitY=0.5;exitDx=0;exitDy=0;entryX=0;entryY=0.75;entryDx=0;entryDy=0;" parent="1" source="wU1aB0iPta8UfizL6uYo-8" target="wU1aB0iPta8UfizL6uYo-7" edge="1">
          <mxGeometry relative="1" as="geometry" />
        </mxCell>
        <mxCell id="wU1aB0iPta8UfizL6uYo-8" value="&lt;span style=&quot;font-size: 27px;&quot;&gt;d&lt;/span&gt;" style="text;html=1;align=center;verticalAlign=middle;whiteSpace=wrap;rounded=0;" parent="1" vertex="1">
          <mxGeometry x="310" y="510" width="20" height="30" as="geometry" />
        </mxCell>
        <mxCell id="wU1aB0iPta8UfizL6uYo-17" style="rounded=0;orthogonalLoop=1;jettySize=auto;html=1;exitX=1;exitY=0.75;exitDx=0;exitDy=0;entryX=0;entryY=0.5;entryDx=0;entryDy=0;" parent="1" source="wU1aB0iPta8UfizL6uYo-9" target="wU1aB0iPta8UfizL6uYo-8" edge="1">
          <mxGeometry relative="1" as="geometry" />
        </mxCell>
        <mxCell id="wU1aB0iPta8UfizL6uYo-9" value="&lt;span style=&quot;font-size: 27px;&quot;&gt;b&lt;/span&gt;" style="text;html=1;align=center;verticalAlign=middle;whiteSpace=wrap;rounded=0;points=[[0,0,0,0,0],[0,0.25,0,0,0],[0,0.5,0,0,0],[0,0.75,0,0,0],[0,1,0,0,0],[0.25,0,0,0,0],[0.25,1,0,0,0],[0.5,0,0,0,0],[0.5,1,0,0,0],[0.75,0,0,0,0],[0.75,1,0,0,0],[1,0,0,0,0],[1,0.3,0,1,0],[1,0.5,0,0,0],[1,0.75,0,0,0],[1,1,0,0,0]];" parent="1" vertex="1">
          <mxGeometry x="240" y="470" width="20" height="30" as="geometry" />
        </mxCell>
        <mxCell id="wU1aB0iPta8UfizL6uYo-18" style="rounded=0;orthogonalLoop=1;jettySize=auto;html=1;exitX=1;exitY=0.25;exitDx=0;exitDy=0;entryX=0;entryY=0.5;entryDx=0;entryDy=0;" parent="1" source="wU1aB0iPta8UfizL6uYo-9" target="wU1aB0iPta8UfizL6uYo-6" edge="1">
          <mxGeometry relative="1" as="geometry" />
        </mxCell>
        <mxCell id="wU1aB0iPta8UfizL6uYo-21" value="&lt;span style=&quot;font-size: 27px;&quot;&gt;||&lt;/span&gt;" style="text;html=1;align=center;verticalAlign=middle;whiteSpace=wrap;rounded=0;" parent="1" vertex="1">
          <mxGeometry x="310" y="474" width="20" height="30" as="geometry" />
        </mxCell>
      </root>
    </mxGraphModel>
  </diagram>
</mxfile>
